<?xml version="1.0" standalone="no"?>
<!DOCTYPE svg PUBLIC "-//W3C//DTD SVG 20010904//EN"
 "http://www.w3.org/TR/2001/REC-SVG-20010904/DTD/svg10.dtd">
<svg version="1.0" xmlns="http://www.w3.org/2000/svg"
 width="512.000000pt" height="512.000000pt" viewBox="0 0 512.000000 512.000000"
 preserveAspectRatio="xMidYMid meet">

<g transform="translate(0.000000,512.000000) scale(0.100000,-0.100000)"
fill="#000000" stroke="none">
<path d="M2305 4909 c-633 -56 -1229 -315 -1663 -724 -240 -226 -448 -548
-545 -846 -202 -614 -81 -1278 325 -1798 l50 -63 -136 -527 c-75 -289 -136
-537 -136 -551 0 -115 114 -215 225 -197 18 3 339 105 712 227 l678 221 125
-26 c448 -92 904 -84 1341 26 366 91 735 270 1028 497 114 89 300 275 389 390
465 605 551 1360 231 2032 -290 607 -905 1074 -1665 1264 -292 73 -653 101
-959 75z m613 -413 c536 -80 1003 -309 1335 -656 229 -239 373 -506 439 -814
31 -146 31 -426 0 -572 -166 -774 -877 -1350 -1822 -1476 -54 -7 -193 -12
-320 -12 -246 0 -355 12 -584 64 -72 17 -143 30 -159 30 -16 0 -272 -79 -569
-176 -297 -97 -542 -174 -544 -171 -3 3 40 180 95 394 56 213 101 405 101 426
0 56 -21 98 -95 184 -185 216 -308 463 -366 733 -32 150 -33 429 -1 576 96
447 369 827 792 1107 281 185 674 327 1020 366 52 6 111 13 130 15 74 9 450
-4 548 -18z"/>
<path d="M1477 2976 c-172 -64 -221 -282 -92 -411 98 -98 252 -98 350 0 152
151 56 408 -158 421 -38 3 -76 -1 -100 -10z"/>
<path d="M2477 2976 c-172 -64 -221 -282 -92 -411 98 -98 252 -98 350 0 152
151 56 408 -158 421 -38 3 -76 -1 -100 -10z"/>
<path d="M3477 2976 c-172 -64 -221 -282 -92 -411 98 -98 252 -98 350 0 152
151 56 408 -158 421 -38 3 -76 -1 -100 -10z"/>
</g>
</svg>
