<?xml version="1.0" standalone="no"?>
<!DOCTYPE svg PUBLIC "-//W3C//DTD SVG 20010904//EN"
 "http://www.w3.org/TR/2001/REC-SVG-20010904/DTD/svg10.dtd">
<svg version="1.0" xmlns="http://www.w3.org/2000/svg"
 width="512.000000pt" height="512.000000pt" viewBox="0 0 512.000000 512.000000"
 preserveAspectRatio="xMidYMid meet">

<g transform="translate(0.000000,512.000000) scale(0.100000,-0.100000)"
fill="#000000" stroke="none">
<path d="M2593 4007 c-1217 -446 -2213 -814 -2213 -817 0 -3 415 -196 921
-429 l921 -424 592 591 c541 542 594 592 624 592 22 0 41 -8 57 -25 17 -16 25
-35 25 -57 0 -30 -50 -83 -592 -624 l-591 -592 424 -921 c233 -506 426 -921
429 -921 4 0 1548 4201 1628 4428 2 6 0 12 -4 11 -5 0 -1005 -365 -2221 -812z"/>
<path d="M743 1737 c-460 -459 -503 -505 -503 -535 0 -44 38 -82 82 -82 30 0
76 43 535 503 460 459 503 505 503 535 0 44 -38 82 -82 82 -30 0 -76 -43 -535
-503z"/>
<path d="M1383 1497 c-460 -459 -503 -505 -503 -535 0 -44 38 -82 82 -82 30 0
76 43 535 503 460 459 503 505 503 535 0 22 -8 41 -25 57 -16 17 -35 25 -57
25 -30 0 -76 -43 -535 -503z"/>
<path d="M1623 857 c-460 -459 -503 -505 -503 -535 0 -44 38 -82 82 -82 30 0
76 43 535 503 460 459 503 505 503 535 0 44 -38 82 -82 82 -30 0 -76 -43 -535
-503z"/>
</g>
</svg>
